<?xml version="1.0" encoding="utf-8"?>
<!-- Generator: Adobe Illustrator 15.0.0, SVG Export Plug-In . SVG Version: 6.00 Build 0)  -->
<!DOCTYPE svg PUBLIC "-//W3C//DTD SVG 1.1//EN" "http://www.w3.org/Graphics/SVG/1.1/DTD/svg11.dtd">
<svg version="1.1" id="Layer_1" xmlns="http://www.w3.org/2000/svg" xmlns:xlink="http://www.w3.org/1999/xlink" x="0px" y="0px"
	 width="5195.521px" height="5195.52px" viewBox="1157.24 2307.24 5195.521 5195.52"
	 enable-background="new 1157.24 2307.24 5195.521 5195.52" xml:space="preserve">
<path d="M3755,2307.24c-1433.52,0-2597.76,1164.24-2597.76,2597.76c0,1433.521,1164.24,2597.76,2597.76,2597.76
	S6352.761,6338.52,6352.761,4905S5188.521,2307.24,3755,2307.24z M3755,7225.561c-1275.12,0-2320.56-1037.521-2320.56-2320.561
	c0-1275.119,1037.521-2320.559,2320.56-2320.559c1275.121,0,2320.561,1037.52,2320.561,2320.559
	C6075.561,6180.121,5030.121,7225.561,3755,7225.561z M4562.84,4311c55.44,55.441,55.44,142.561,0,198l-997.92,997.922
	c-15.84,15.84-39.601,31.68-63.36,39.6c-7.921,0-23.761,7.92-31.68,7.92c-7.92,0-15.84,0-23.76,0
	c-23.761-7.92-47.521-15.84-71.28-39.6l-419.76-419.76c-55.439-55.439-55.439-142.559,0-198c55.439-55.439,142.561-55.439,198,0
	l324.721,324.721l894.96-894.959C4420.28,4255.561,4507.4,4255.561,4562.84,4311z"/>
</svg>
