<?xml version="1.0" encoding="utf-8"?>
<!-- Generator: Adobe Illustrator 15.0.0, SVG Export Plug-In . SVG Version: 6.00 Build 0)  -->
<!DOCTYPE svg PUBLIC "-//W3C//DTD SVG 1.1//EN" "http://www.w3.org/Graphics/SVG/1.1/DTD/svg11.dtd">
<svg version="1.1" id="Layer_1" xmlns="http://www.w3.org/2000/svg" xmlns:xlink="http://www.w3.org/1999/xlink" x="0px" y="0px"
	 width="7096.32px" height="7096.32px" viewBox="411.84 1149.84 7096.32 7096.32"
	 enable-background="new 411.84 1149.84 7096.32 7096.32" xml:space="preserve">
<path d="M3960,8246.16c950.4,0,1837.439-372.24,2510.64-1037.52C7143.84,6535.439,7508.16,5648.4,7508.16,4698
	s-372.239-1837.44-1037.52-2510.641C5797.439,1514.16,4910.4,1149.84,3960,1149.84s-1837.439,364.32-2510.64,1037.52
	C776.16,2860.56,411.84,3747.6,411.84,4698S784.08,6535.439,1449.36,7208.64S3009.6,8246.16,3960,8246.16z M3960,1427.04
	c1805.761,0,3270.96,1465.2,3270.96,3270.96S5765.761,7968.96,3960,7968.96S689.04,6503.76,689.04,4698
	S2154.24,1427.04,3960,1427.04z M3825.36,5759.279v997.92h277.199v-997.92c261.36-63.359,459.36-300.959,459.36-586.08
	c0-285.119-198-522.719-459.36-586.08V2615.04H3825.36v1972.079C3564,4650.479,3366,4888.08,3366,5173.199
	C3366,5458.32,3556.08,5695.92,3825.36,5759.279z M3967.92,4856.4c174.24,0,324.72,142.56,324.72,324.719
	c0,182.16-142.56,324.721-324.72,324.721s-324.72-150.48-324.72-332.641C3643.2,4991.04,3785.76,4856.4,3967.92,4856.4z
	 M2431.44,4808.88v1948.319h277.2V4808.88C2970,4745.52,3168,4507.92,3168,4222.8s-198-522.72-459.359-586.08V2615.04h-277.2
	v1021.68c-261.36,63.36-459.36,300.96-459.36,586.08S2170.08,4745.52,2431.44,4808.88z M2566.08,3906h23.76
	c174.24,7.92,308.881,150.48,308.881,324.72c0,174.24-142.561,324.72-324.721,324.72c-182.159,0-324.72-142.56-324.72-324.72
	S2391.84,3906,2566.08,3906z M5203.439,4808.88v1948.319h277.2V4808.88C5742,4745.52,5940,4507.92,5940,4222.8
	s-198-522.72-459.36-586.08V2615.04h-277.2v1021.68c-261.359,63.36-459.359,300.96-459.359,586.08S4942.08,4745.52,5203.439,4808.88
	z M5346,3898.08c174.24,0,324.72,142.56,324.72,324.72s-142.56,324.72-324.72,324.72c-174.239,0-324.72-142.56-324.72-324.72
	S5163.84,3898.08,5346,3898.08z"/>
</svg>
