<?xml version="1.0" encoding="utf-8"?>
<!-- Generator: Adobe Illustrator 15.0.0, SVG Export Plug-In . SVG Version: 6.00 Build 0)  -->
<!DOCTYPE svg PUBLIC "-//W3C//DTD SVG 1.1//EN" "http://www.w3.org/Graphics/SVG/1.1/DTD/svg11.dtd">
<svg version="1.1" id="Layer_1" xmlns="http://www.w3.org/2000/svg" xmlns:xlink="http://www.w3.org/1999/xlink" x="0px" y="0px"
	 width="7872.479px" height="5599.438px" viewBox="0 0 7872.479 5599.438" enable-background="new 0 0 7872.479 5599.438"
	 xml:space="preserve">
<path d="M1251.36,681.12h261.359v396H1251.36V681.12z M1861.2,1077.12h261.36v-396H1861.2V1077.12z M2471.04,1077.12h261.36v-396
	h-261.36V1077.12L2471.04,1077.12z M1251.36,1845.358h261.359v-396H1251.36V1845.358z M1861.2,1845.358h261.36v-396H1861.2V1845.358
	z M2471.04,1845.358h261.36v-396h-261.36V1845.358L2471.04,1845.358z M1251.36,2613.6h261.359v-396H1251.36V2613.6z M1861.2,2613.6
	h261.36v-396H1861.2V2613.6z M2471.04,2613.6h261.36v-396h-261.36V2613.6L2471.04,2613.6z M1251.36,3381.838h261.359v-396H1251.36
	V3381.838z M1861.2,3381.838h261.36v-396H1861.2V3381.838z M2471.04,3381.838h261.36v-396h-261.36V3381.838L2471.04,3381.838z
	 M1251.36,4157.998h261.359v-396H1251.36V4157.998z M1861.2,4157.998h261.36v-396H1861.2V4157.998z M2471.04,4157.998h261.36v-396
	h-261.36V4157.998L2471.04,4157.998z M1251.36,4926.238h261.359v-396H1251.36V4926.238z M1861.2,4926.238h261.36v-396H1861.2
	V4926.238z M2471.04,4926.238h261.36v-396h-261.36V4926.238L2471.04,4926.238z M3714.479,2613.6h261.36v-396h-261.36V2613.6z
	 M4324.319,2613.6h261.359v-396h-261.359V2613.6z M4934.159,2613.6h261.361v-396h-261.361V2613.6z M3714.479,3381.838h261.36v-396
	h-261.36V3381.838z M4324.319,3381.838h261.359v-396h-261.359V3381.838z M4934.159,3381.838h261.361v-396h-261.361V3381.838z
	 M3714.479,4157.998h261.36v-396h-261.36V4157.998z M4324.319,4157.998h261.359v-396h-261.359V4157.998z M4934.159,4157.998h261.361
	v-396h-261.361V4157.998z M3714.479,4926.238h261.36v-396h-261.36V4926.238z M4324.319,4926.238h261.359v-396h-261.359V4926.238z
	 M4934.159,4926.238h261.361v-396h-261.361V4926.238z M7872.479,5338.078v261.359H5686.558H3223.439H768.24H0v-261.359H633.6
	V134.639C633.6,63.359,689.04,0,768.241,0h2463.12C3302.64,0,3366,55.439,3366,134.639v1378.081h2328.479
	c71.279,0,134.641,55.439,134.641,134.639v3690.72h902.879v-372.24c-269.279-39.6-475.199-277.201-475.199-554.4v-728.641
	c0-308.879,253.439-562.32,562.318-562.32h87.121c308.879,0,562.318,253.441,562.318,562.32v728.641
	c0,277.199-205.92,506.879-475.199,554.4v372.24H7872.479L7872.479,5338.078z M6985.438,4696.559
	c118.801-39.602,205.92-150.48,205.92-285.121v-728.641c0-166.32-134.639-293.041-293.039-293.041H6811.2
	c-166.32,0-293.041,134.641-293.041,293.041v728.641c-7.92,134.641,87.119,253.441,205.92,285.121H6985.438z M3096.719,5338.078
	V269.279H894.958v5068.799H3096.719z M5559.841,5338.078V1782H3358.079v3556.078H5559.841z"/>
</svg>
