<?xml version="1.0" encoding="utf-8"?>
<!-- Generator: Adobe Illustrator 15.0.0, SVG Export Plug-In . SVG Version: 6.00 Build 0)  -->
<!DOCTYPE svg PUBLIC "-//W3C//DTD SVG 1.1//EN" "http://www.w3.org/Graphics/SVG/1.1/DTD/svg11.dtd">
<svg version="1.1" id="Layer_1" xmlns="http://www.w3.org/2000/svg" xmlns:xlink="http://www.w3.org/1999/xlink" x="0px" y="0px"
	 width="5298.48px" height="5105.996px" viewBox="0 0 5298.48 5105.996" enable-background="new 0 0 5298.48 5105.996"
	 xml:space="preserve">
<path d="M411.84,4971.361h586.08c118.801,0,221.76-55.441,300.961-134.641c134.639,166.32,340.56,269.277,570.238,269.277h712.801
	h71.279H3769.92h261.359h87.121c498.959,0,823.68-261.359,879.119-720.721l300.961-1908.721c0-7.922,0-23.76,0-31.68v-7.922
	c0-411.84-332.64-736.559-736.561-736.559h-174.24h-617.76h-348.479V884.639c0-348.48-102.961-601.922-300.961-744.48
	c-316.8-237.6-752.398-102.959-776.16-95.041c-55.439,15.841-95.039,71.279-95.039,126.721v918.721
	c0,300.959-142.562,554.4-419.761,752.4c-221.76,158.398-451.438,221.758-451.438,221.758c-23.762,7.922-47.521,23.76-63.361,39.6
	c-71.279-102.959-190.08-166.318-324.721-166.318H403.922C182.16,1937.998,0,2120.158,0,2341.92v2225.52
	C15.84,4789.201,190.08,4971.361,411.84,4971.361z M1425.6,2341.92c15.84,0,23.76,0,39.6-7.922
	c47.521-15.84,1069.2-308.879,1069.2-1243.439V282.717c110.879-15.842,300.96-23.76,435.6,71.279
	c126.722,95.041,190.08,269.279,190.08,530.641v950.4c0,71.279,63.36,134.641,134.64,134.641h483.121h617.761h174.239
	c261.359,0,467.278,205.922,467.278,467.279v7.922l-300.96,1900.799c0,0,0,0,0,7.922c-39.6,324.719-245.521,483.121-609.84,483.121
	h-87.12h-261.36H2661.12h-71.28h-712.799c-261.361,0-467.279-205.922-467.279-467.281v-2019.6c0-7.92,0-7.92,0-15.842
	C1409.76,2341.92,1417.68,2341.92,1425.6,2341.92z M285.119,2349.84c0-71.279,55.441-126.721,126.721-126.721h586.08
	c71.279,0,126.721,55.439,126.721,126.721v2225.521c0,71.275-55.438,126.719-126.721,126.719H411.84
	c-71.279,0-126.721-55.441-126.721-126.719V2349.84z"/>
</svg>
