<?xml version="1.0" encoding="utf-8"?>
<!-- Generator: Adobe Illustrator 15.0.0, SVG Export Plug-In . SVG Version: 6.00 Build 0)  -->
<!DOCTYPE svg PUBLIC "-//W3C//DTD SVG 1.1//EN" "http://www.w3.org/Graphics/SVG/1.1/DTD/svg11.dtd">
<svg version="1.1" id="Layer_1" xmlns="http://www.w3.org/2000/svg" xmlns:xlink="http://www.w3.org/1999/xlink" x="0px" y="0px"
	 width="5369.758px" height="5369.758px" viewBox="0 0 5369.758 5369.758" enable-background="new 0 0 5369.758 5369.758"
	 xml:space="preserve">
<path d="M2684.879,4118.398c-71.279,0-134.639-63.359-134.639-134.641v-285.119h-380.16c-71.279,0-134.641-63.359-134.641-134.641
	c0-71.279,63.359-134.645,134.641-134.645h704.879h7.92h7.92c166.32,0,300.961-134.641,300.961-300.959
	s-134.641-300.959-300.961-300.959h-395.998c-316.801,0-570.24-253.438-570.24-570.24s253.439-570.24,570.24-570.24h63.359v-285.121
	c0-71.278,63.359-134.641,134.639-134.641s134.641,63.358,134.641,134.641v285.121h364.32c71.279,0,134.641,63.357,134.641,134.642
	c0,71.278-63.359,134.641-134.641,134.641h-704.879c-166.32,0-300.961,134.641-300.961,300.959
	c0,166.32,134.641,300.959,300.961,300.959h396c316.799,0,570.238,253.442,570.238,570.241
	c0,316.801-253.439,570.242-570.24,570.242h-7.92h-7.92h-47.521v285.119C2819.52,4055.039,2756.159,4118.398,2684.879,4118.398z
	 M2684.879,5369.758C1203.84,5369.758,0,4165.918,0,2684.878S1203.84,0,2684.879,0s2684.879,1203.839,2684.879,2684.878
	C5369.758,4165.922,4165.918,5369.758,2684.879,5369.758z M2684.879,5092.559c1330.561,0,2407.68-1085.041,2407.68-2407.68
	c0-1330.559-1085.039-2407.68-2407.68-2407.68c-1330.56,0-2407.68,1085.041-2407.68,2407.68
	C277.199,4015.438,1354.32,5092.559,2684.879,5092.559z"/>
</svg>
