<?xml version="1.0" encoding="utf-8"?>
<!-- Generator: Adobe Illustrator 15.0.0, SVG Export Plug-In . SVG Version: 6.00 Build 0)  -->
<!DOCTYPE svg PUBLIC "-//W3C//DTD SVG 1.1//EN" "http://www.w3.org/Graphics/SVG/1.1/DTD/svg11.dtd">
<svg version="1.1" id="Layer_1" xmlns="http://www.w3.org/2000/svg" xmlns:xlink="http://www.w3.org/1999/xlink" x="0px" y="0px"
	 width="5290.703px" height="6858.719px" viewBox="0 0 5290.703 6858.719" enable-background="new 0 0 5290.703 6858.719"
	 xml:space="preserve">
<path d="M4561.919,3453.119h-174.238H3769.92H3421.44v-815.76c0-348.479-102.96-601.92-300.96-744.479
	c-316.8-237.601-752.399-102.959-776.159-95.041c-55.439,15.84-95.039,71.278-95.039,126.721v918.719
	c0,300.959-142.562,554.4-419.763,752.4c-221.76,158.399-451.438,221.76-451.438,221.76c-23.76,7.92-47.521,23.76-63.359,39.6
	c-71.279-102.959-190.08-166.32-324.721-166.32h-586.08c-221.76,0-403.92,182.158-403.92,403.92V6320.16
	c0,221.758,182.16,403.922,403.92,403.922h586.08c118.801,0,221.76-55.441,300.961-134.645
	c134.639,166.32,340.559,269.281,570.238,269.281h712.801h71.279h1116.721h261.359h87.12c498.96,0,823.681-261.359,879.12-720.719
	l300.961-1908.723c0-7.92,0-23.758,0-31.681v-7.92C5298.478,3777.84,4973.759,3453.119,4561.919,3453.119z M1124.639,6320.16
	c0,71.277-55.44,126.719-126.721,126.719h-586.08c-71.279,0-126.721-55.44-126.721-126.719V4094.639
	c0-71.279,55.438-126.722,126.721-126.722h586.08c71.279,0,126.721,55.44,126.721,126.722V6320.16z M4728.238,6098.402
	L4728.238,6098.402c-39.601,324.719-245.521,491.039-609.84,491.039h-87.12h-261.36H2653.199h-71.28H1869.12
	c-261.361,0-467.279-205.922-467.279-467.281V4102.562v-7.92c7.92,0,15.838,0,23.76,0c15.84,0,23.76,0,39.601-7.922
	c47.52-15.84,1069.2-308.879,1069.2-1243.441v-807.84c110.879-15.842,300.959-23.76,435.6,71.279
	c126.721,95.041,190.079,269.279,190.079,530.641v950.4c0,71.279,63.359,134.641,134.641,134.641h483.12h617.761h174.24
	c261.359,0,467.278,205.92,467.278,467.279v7.922L4728.238,6098.402z M2724.478,0c71.279,0,134.641,63.359,134.641,134.644v1045.438
	c0,71.279-63.36,134.644-134.641,134.644c-71.279,0-134.64-63.359-134.64-134.644V134.643C2589.839,63.359,2653.199,0,2724.478,0z
	 M3944.159,2352.24h1045.438c71.279,0,134.641,63.357,134.641,134.641c0,71.279-63.36,134.642-134.641,134.642H3944.159
	c-71.279,0-134.641-63.358-134.641-134.642C3809.519,2415.602,3872.878,2352.24,3944.159,2352.24z M4561.919,562.318
	c55.44,55.441,55.44,142.559,0,190.08l-736.56,736.559c-23.762,23.761-63.36,39.601-95.04,39.601
	c-31.681,0-71.279-15.84-95.04-39.601c-55.439-55.44-55.439-142.559,0-190.08l736.561-736.559
	C4427.278,506.881,4514.398,506.881,4561.919,562.318z M1821.598,2486.881c0,71.278-63.358,134.641-134.639,134.641h-182.16h-863.28
	h-182.16c-71.279,0-134.64-63.359-134.64-134.641c0-71.279,63.359-134.642,134.64-134.642h182.16h863.28h182.16
	C1758.239,2352.24,1821.598,2415.602,1821.598,2486.881z M1813.678,1496.881c-23.76,23.758-63.36,39.6-95.041,39.6
	c-31.678,0-71.278-15.842-95.039-39.6L887.037,760.319c-55.439-55.438-55.439-142.56,0-190.078c55.438-55.44,142.561-55.44,190.08,0
	l736.561,736.56C1869.12,1354.318,1869.12,1441.439,1813.678,1496.881z"/>
</svg>
