<?xml version="1.0" encoding="utf-8"?>
<!-- Generator: Adobe Illustrator 15.0.0, SVG Export Plug-In . SVG Version: 6.00 Build 0)  -->
<!DOCTYPE svg PUBLIC "-//W3C//DTD SVG 1.1//EN" "http://www.w3.org/Graphics/SVG/1.1/DTD/svg11.dtd">
<svg version="1.1" id="Layer_1" xmlns="http://www.w3.org/2000/svg" xmlns:xlink="http://www.w3.org/1999/xlink" x="0px" y="0px"
	 width="7490.135px" height="4620.398px" viewBox="0 0 7490.135 4620.398" enable-background="new 0 0 7490.135 4620.398"
	 xml:space="preserve">
<path d="M7028.448,3471.996c-633.601-198-847.44-459.359-894.961-625.68c205.921-15.842,578.161-71.279,799.921-300.959
	c39.6-39.602,55.439-95.041,39.6-142.561s-55.439-87.119-102.96-102.959c-23.76-7.92-269.279-118.799-213.84-673.199
	c39.601-411.842,23.761-966.24-269.279-1267.199c-126.721-126.721-293.04-190.08-483.12-190.08
	c-118.801-95.041-403.921-269.279-855.36-95.041h-7.921c-308.879,118.801-720.721,388.08-696.96,1362.24
	c15.84,633.6-142.561,823.68-213.84,847.441c-55.439-7.92-102.96,23.76-126.721,71.279c-31.68,47.521-15.84,110.879,15.84,166.32
	c23.761,31.68,229.68,308.881,847.439,340.559c-31.679,118.801-150.479,308.881-546.479,491.041
	c-71.279,31.68-150.479,63.359-229.679,95.041c-7.921,7.922-23.761,7.922-31.68,15.842
	c-807.84-229.68-1013.76-498.959-1061.279-609.842c641.521-443.52,554.4-1504.799,546.479-1591.92
	c-47.52-974.158-760.32-1211.758-1188-1203.84c-419.76-15.842-1140.479,221.758-1188,1203.84
	c-7.92,95.041-102.959,1188,578.16,1615.68c-71.279,126.721-316.799,403.92-1211.76,633.6
	c-372.24,95.041-562.32,451.439-530.639,974.158c7.92,79.203,71.279,134.641,150.479,134.641h4443.119c7.921,0,7.921,0,15.84,0
	c7.921,0,7.921,0,15.84,0h2708.64c79.2,0,142.561-63.359,150.479-142.559C7511.568,3931.355,7353.168,3574.955,7028.448,3471.996z
	 M296.448,4319.434c7.92-205.922,63.359-467.281,308.879-530.641c1449.361-364.32,1465.201-934.559,1465.201-997.92
	c0-31.68-15.84-63.359-39.602-87.121c0,0,0-7.92-7.92-7.92c-7.92-7.922-7.92-7.922-15.84-7.922c0,0-7.92-7.92-15.84-7.92l-7.92-7.92
	l-7.92-7.922c-625.68-293.039-514.801-1370.158-514.801-1378.078v-7.92c39.6-910.801,744.48-926.643,887.039-918.721h7.922
	c142.561-7.922,839.52,15.84,887.039,918.721v7.92c0,7.92,110.879,1053.359-491.039,1370.158
	c-63.361,31.68-95.041,102.959-71.279,174.242c15.84,142.559,150.479,641.52,1465.199,966.24
	c245.521,63.359,300.96,316.801,308.88,530.641H296.448V4319.434z M4747.488,4319.434c-7.921-316.801-110.88-562.32-293.04-704.879
	c766.699-337.301,693.633-877.746,693.633-901.506l-4.594-33.053c-15.839-63.359-71.279-118.801-142.56-118.801l0,0
	c-7.921,0-15.84,0-15.84,0c-285.12,0-459.36-55.441-570.24-110.879c174.24-182.16,253.44-522.721,237.601-1013.76
	c-23.761-879.121,348.479-1013.76,506.879-1077.121h7.921c388.079-142.559,570.239,63.359,578.16,71.279
	c31.68,39.602,79.2,55.441,126.721,55.441c134.64-15.84,237.6,23.76,316.8,102.959c166.32,166.32,237.6,538.559,190.079,1029.6
	c-47.521,459.359,87.121,704.881,213.84,839.521c-198,95.041-467.279,110.879-578.16,110.879
	c-71.279,0-126.721,47.521-142.56,110.881l0,0l0,0c0,0,0,0,0,7.92c-23.761,87.121-118.801,712.799,1092.96,1085.041
	c205.92,63.359,245.521,348.48,253.439,562.32H4747.488V4319.434z"/>
</svg>
